<!-- Generated by IcoMoon.io -->
<svg version="1.1" xmlns="http://www.w3.org/2000/svg" width="32" height="32" viewBox="0 0 32 32">
<title>heart</title>
<path d="M26.844 7.089c1.173 1.175 1.759 2.708 1.759 4.245s-0.587 3.071-1.759 4.243l-10.844 10.844-10.844-10.844c-1.172-1.172-1.757-2.705-1.757-4.244s0.585-3.072 1.757-4.244 2.705-1.757 4.244-1.757 3.072 0.585 4.244 1.757l1.413 1.413c0.521 0.521 1.365 0.521 1.885 0l1.416-1.416c1.172-1.172 2.705-1.757 4.243-1.756s3.071 0.587 4.243 1.759zM28.729 5.204c-1.692-1.692-3.912-2.539-6.128-2.54s-4.436 0.845-6.129 2.537l-0.472 0.473-0.471-0.471c-1.692-1.692-3.913-2.539-6.129-2.539s-4.437 0.847-6.129 2.539-2.539 3.913-2.539 6.129 0.847 4.437 2.539 6.129l11.787 11.787c0.521 0.521 1.365 0.521 1.885 0l11.787-11.787c1.692-1.692 2.539-3.912 2.54-6.128s-0.845-4.436-2.54-6.131z"></path>
</svg>
