<?xml version="1.0" encoding="iso-8859-1"?>
<!-- Generator: Adobe Illustrator 19.0.0, SVG Export Plug-In . SVG Version: 6.00 Build 0)  -->
<svg version="1.1" id="Capa_1" xmlns="http://www.w3.org/2000/svg" xmlns:xlink="http://www.w3.org/1999/xlink" x="0px" y="0px"
	 viewBox="0 0 477.867 477.867" style="enable-background:new 0 0 477.867 477.867;" xml:space="preserve">
<g>
	<g>
		<path d="M238.933,0C106.974,0,0,106.974,0,238.933s106.974,238.933,238.933,238.933s238.933-106.974,238.933-238.933
			C477.726,107.033,370.834,0.141,238.933,0z M238.933,443.733c-113.108,0-204.8-91.692-204.8-204.8s91.692-204.8,204.8-204.8
			s204.8,91.692,204.8,204.8C443.611,351.991,351.991,443.611,238.933,443.733z"/>
	</g>
</g>
<g>
	<g>
		<path d="M355.138,115.063c-4.793-2.388-10.428-2.388-15.221,0h0L195.106,187.46c-3.31,1.653-5.993,4.336-7.646,7.646
			l-72.397,144.811c-4.203,8.437-0.771,18.683,7.665,22.886c4.793,2.388,10.428,2.388,15.221,0l144.811-72.397
			c3.31-1.653,5.993-4.336,7.646-7.646l72.397-144.811C367.006,129.513,363.575,119.267,355.138,115.063z M168.499,309.367
			l38.912-77.824l38.912,38.912L168.499,309.367z M270.455,246.323l-38.912-38.912l77.824-38.912L270.455,246.323z"/>
	</g>
</g>
<g>
</g>
<g>
</g>
<g>
</g>
<g>
</g>
<g>
</g>
<g>
</g>
<g>
</g>
<g>
</g>
<g>
</g>
<g>
</g>
<g>
</g>
<g>
</g>
<g>
</g>
<g>
</g>
<g>
</g>
</svg>
