<?xml version="1.0" standalone="no"?>
<!DOCTYPE svg PUBLIC "-//W3C//DTD SVG 20010904//EN"
 "http://www.w3.org/TR/2001/REC-SVG-20010904/DTD/svg10.dtd">
<svg version="1.0" xmlns="http://www.w3.org/2000/svg"
 width="161.000000pt" height="163.000000pt" viewBox="0 0 161.000000 163.000000"
 preserveAspectRatio="xMidYMid meet">
<metadata>
Created by potrace 1.16, written by Peter Selinger 2001-2019
</metadata>
<g transform="translate(0.000000,163.000000) scale(0.100000,-0.100000)"
fill="#000000" stroke="none">
<path d="M673 1361 c-124 -42 -215 -149 -243 -285 -33 -163 53 -332 208 -408
61 -30 74 -33 162 -33 88 0 101 3 162 33 136 67 211 187 211 337 0 169 -104
315 -257 360 -67 20 -179 19 -243 -4z m254 -61 c58 -25 130 -95 161 -155 22
-42 26 -63 27 -135 0 -73 -4 -93 -28 -142 -30 -62 -83 -115 -149 -150 -36 -19
-58 -23 -138 -23 -80 0 -102 4 -138 23 -66 35 -119 88 -149 150 -24 49 -28 69
-28 142 0 72 4 92 27 135 28 55 96 123 148 150 73 38 187 40 267 5z"/>
<path d="M381 555 c-147 -46 -258 -205 -249 -357 3 -49 5 -53 28 -53 24 0 25
3 31 75 3 41 13 91 21 111 22 50 82 115 137 147 l46 27 405 0 405 0 46 -27
c55 -33 115 -97 136 -147 9 -20 18 -70 22 -111 6 -72 7 -75 31 -75 23 0 25 4
28 48 7 111 -54 242 -143 306 -96 69 -112 71 -527 70 -287 0 -383 -4 -417 -14z"/>
</g>
</svg>
