<?xml version="1.0" standalone="no"?>
<!DOCTYPE svg PUBLIC "-//W3C//DTD SVG 20010904//EN"
 "http://www.w3.org/TR/2001/REC-SVG-20010904/DTD/svg10.dtd">
<svg version="1.0" xmlns="http://www.w3.org/2000/svg"
 width="840.000000pt" height="773.000000pt" viewBox="0 0 840.000000 773.000000"
 preserveAspectRatio="xMidYMid meet">
<metadata>
Created by potrace 1.16, written by Peter Selinger 2001-2019
</metadata>
<g transform="translate(0.000000,773.000000) scale(0.100000,-0.100000)"
fill="#000000" stroke="none">
<path d="M4065 7323 c-150 -7 -332 -26 -461 -48 -1064 -180 -1997 -868 -2487
-1832 -187 -368 -290 -690 -346 -1078 -148 -1020 159 -2036 847 -2808 500
-559 1175 -943 1917 -1088 347 -68 808 -77 1175 -23 1322 195 2435 1170 2805
2458 98 341 129 574 129 961 0 387 -31 620 -129 961 -211 735 -659 1369 -1309
1853 -351 261 -857 483 -1313 576 -203 41 -585 79 -728 73 -22 -1 -67 -3 -100
-5z m475 -248 c449 -52 819 -168 1220 -385 594 -320 1090 -857 1376 -1489 136
-300 215 -586 266 -961 20 -144 16 -602 -6 -765 -95 -710 -392 -1333 -874
-1836 -57 -60 -108 -109 -112 -109 -4 0 -10 31 -14 69 -28 285 -180 597 -407
835 -359 378 -895 623 -1508 687 -149 15 -562 6 -696 -15 -563 -92 -1011 -307
-1345 -645 -133 -134 -209 -237 -286 -385 -84 -161 -136 -328 -150 -483 -4
-40 -11 -73 -17 -73 -17 0 -205 199 -303 322 -149 184 -274 381 -378 592 -177
357 -277 692 -321 1077 -21 185 -21 553 0 729 62 530 238 1005 533 1440 127
188 220 299 397 475 242 243 505 433 815 589 354 180 746 294 1140 335 147 15
523 12 670 -4z"/>
<path d="M3985 6124 c-635 -115 -1095 -658 -1095 -1294 0 -261 76 -507 226
-738 64 -99 227 -266 326 -335 391 -274 896 -317 1323 -112 137 66 239 139
350 249 161 160 261 321 329 527 230 706 -166 1456 -881 1668 -172 51 -409 65
-578 35z"/>
</g>
</svg>
