<!-- Generated by IcoMoon.io -->
<svg version="1.1" xmlns="http://www.w3.org/2000/svg" width="512" height="512" viewBox="0 0 512 512">
<title></title>
<g id="icomoon-ignore">
</g>
<path fill="rgba(38, 38, 38, 0.7)" d="M272.005 512.002c-1.148 0-2.311-0.125-3.47-0.382-7.324-1.625-12.535-8.119-12.535-15.62v-240h-240c-7.501 0-13.996-5.211-15.62-12.535-1.625-7.323 2.057-14.792 8.854-17.964l480-224c6.098-2.844 13.322-1.572 18.080 3.186s6.030 11.983 3.186 18.080l-224 480c-2.671 5.72-8.386 9.235-14.495 9.235zM88.121 224h183.879c8.837 0 16 7.164 16 16v183.879l174.895-374.773-374.774 174.894z"></path>
</svg>
